#!OML:ASF H:\GeneralSubjects\Female5\Project 1\Capture day 1\Session 1\Female5.ASF
:FULLY-SPECIFIED
:DEGREES
165
root 22.7882 16.8389 2.38635 -162.419 8.72672 -177.341
lowerback 8.28008 0.206464 -1.32544
upperback -10.5474 1.18179 2.11009
thorax -16.605 1.2276 2.77521
lowerneck -15.988 -1.79676 -3.41323
upperneck 33.6516 0.375575 1.56239
head 14.1941 0.835378 1.52067
rclavicle -1.31757e-014 -2.26615e-014
rhumerus -52.9994 27.9076 -83.5633
rradius 43.8319
rwrist -4.43896
rhand -28.5848 -11.7313
rfingers 7.12502
rthumb -1.95075 -41.7021
lclavicle -1.31757e-014 -2.26615e-014
lhumerus -56.1536 6.51115 73.5557
lradius 42.6242
lwrist -7.90881
lhand -32.8938 25.0092
lfingers 7.12502
lthumb -6.11169 54.901
rfemur -18.6506 18.004 14.8664
rtibia 6.06203
rfoot -0.857727 -33.8227
rtoes -22.0153
lfemur -24.0069 -10.8872 -32.9179
ltibia 21.1728
lfoot -8.68805 6.38887
ltoes -64.894
166
root 23.0567 16.4295 2.42854 -161.482 7.9761 -175.835
lowerback 7.82843 0.139751 -0.589183
upperback -11.0369 1.33391 2.11025
thorax -16.9157 1.2641 2.3189
lowerneck -15.1746 -1.62485 -2.92497
upperneck 32.4271 0.00281276 2.37696
head 13.4759 0.808736 1.65372
rclavicle 3.51818e-014 1.37161e-014
rhumerus -53.5589 27.5696 -84.3817
rradius 43.6926
rwrist -3.9588
rhand -28.2361 -12.0681
rfingers 7.12502
rthumb -1.61398 -42.0417
lclavicle 3.51818e-014 1.37161e-014
lhumerus -57.1999 4.60682 75.3289
lradius 39.9387
lwrist -9.5434
lhand -28.4487 23.9772
lfingers 7.12502
lthumb -1.81931 53.9492
rfemur -20.7167 12.6721 16.7444
rtibia 9.22164
rfoot -0.191867 -16.7088
rtoes -34.9466
lfemur -25.9888 -14.2449 -30.8493
ltibia 25.1446
lfoot -15.4183 1.29954
ltoes -58.1842
167
root 23.332 15.9877 2.47575 -160.964 7.40694 -174.829
lowerback 7.71283 0.132166 -0.995807
upperback -11.5854 1.38406 2.08886
thorax -17.5552 1.39852 2.50106
lowerneck -13.7389 -1.46504 -1.67494
upperneck 31.1074 -0.230416 2.34596
head 12.6084 0.828368 1.34046
rclavicle -8.1626e-015 -3.01159e-014
rhumerus -53.895 26.8443 -85.2445
rradius 42.8021
rwrist -3.83553
rhand -28.3146 -13.2281
rfingers 7.12502
rthumb -1.6898 -43.2011
lclavicle -8.1626e-015 -3.01159e-014
lhumerus -58.0389 3.05202 76.8513
lradius 36.5324
lwrist -12.8602
lhand -35.1118 24.9602
lfingers 7.12502
lthumb -8.25265 54.779
rfemur -22.5118 8.00471 18.7639
rtibia 12.6654
rfoot -4.807 -8.54965
rtoes -39.9587
lfemur -28.7688 -13.8151 -29.7159
ltibia 30.9198
lfoot -19.6158 -5.34953
ltoes -54.3261
168
root 23.6242 15.5137 2.52605 -161.569 6.36171 -172.51
lowerback 8.63433 0.146543 -0.105257
upperback -11.6033 1.60538 2.33743
thorax -18.2048 1.41263 2.22837
lowerneck -12.9566 -1.27805 0.0481288
upperneck 30.0696 -0.400123 2.01184
head 12.0176 0.875075 0.859589
rclavicle -4.94477e-015 -1.74931e-014
rhumerus -53.5531 25.477 -85.865
rradius 41.2098
rwrist -4.17258
rhand -28.6368 -14.6617
rfingers 7.12502
rthumb -2.00091 -44.632
lclavicle -4.94477e-015 -1.74931e-014
lhumerus -58.0306 2.12368 77.4574
lradius 32.66
lwrist -17.2652
lhand -37.4294 25.7367
lfingers 7.12502
lthumb -10.4889 55.4551
rfemur -22.4819 3.70717 23.8794
rtibia 15.2788
rfoot -11.3873 -2.10837
rtoes -34.1462
lfemur -29.9633 -15.8726 -27.006
ltibia 35.7155
lfoot -26.0055 -10.164
ltoes -50.6114
169
root 23.9343 15.0841 2.55943 -163.931 5.29068 -170.089
lowerback 10.7873 0.253548 0.662967
upperback -10.7155 1.78183 2.76497
thorax -18.5185 1.34339 2.24948
lowerneck -13.3803 -1.0099 1.33187
upperneck 29.1444 -0.499148 1.9053
head 11.736 0.885959 0.558905
rclavicle 1.09332e-015 2.0276e-014
rhumerus -52.8275 24.1314 -85.8935
rradius 39.6645
rwrist -5.44333
rhand -28.7872 -15.719
rfingers 7.12502
rthumb -2.14617 -45.688
lclavicle 1.09332e-015 2.0276e-014
lhumerus -57.6124 3.14891 76.4847
lradius 28.8201
lwrist -22.583
lhand -37.5143 24.7874
lfingers 7.12502
lthumb -10.5708 54.5016
rfemur -19.7293 3.08848 28.4834
rtibia 16.5554
rfoot -14.3461 -0.730074
rtoes -28.8644
lfemur -30.3159 -13.2125 -24.4318
ltibia 41.1768
lfoot -26.9204 -13.4405
ltoes -50.0194
170
root 24.1669 14.8915 2.6052 -164.498 5.31278 -171.447
lowerback 11.4303 0.589737 -1.9971
upperback -10.4186 1.48493 2.12322
thorax -18.6021 1.44151 3.09183
lowerneck -13.8219 -0.860149 1.69122
upperneck 27.8595 -0.773571 2.4929
head 11.3336 0.772885 0.644428
rclavicle 1.59028e-015 2.06736e-014
rhumerus -52.6675 22.9283 -85.7475
rradius 38.6976
rwrist -7.35352
rhand -28.6553 -16.3342
rfingers 7.12502
rthumb -2.01885 -46.3043
lclavicle 1.59028e-015 2.06736e-014
lhumerus -57.2072 3.76555 75.5989
lradius 26.2754
lwrist -26.1438
lhand -37.7038 24.0535
lfingers 7.12502
lthumb -10.7536 53.7582
rfemur -23.1108 2.92795 28.0219
rtibia 23.3666
rfoot -17.0552 0.287446
rtoes -23.6606
lfemur -33.2495 -16.5038 -25.2331
ltibia 47.6979
lfoot -29.5577 -13.4077
ltoes -48.2656
171
root 24.3711 14.8317 2.65385 -165.087 4.63871 -168.575
lowerback 12.3749 0.746627 0.124036
upperback -9.85221 2.09765 2.44897
thorax -18.4821 1.42753 2.10255
lowerneck -14.0948 -0.814784 1.81064
upperneck 26.3102 -1.19007 3.40335
head 10.8158 0.598394 0.862811
rclavicle -1.39149e-014 -1.98785e-014
rhumerus -52.7672 21.9625 -86.014
rradius 38.1599
rwrist -9.38234
rhand -28.2771 -16.908
rfingers 7.12502
rthumb -1.65359 -46.8813
lclavicle -1.39149e-014 -1.98785e-014
lhumerus -56.9734 4.44755 74.9009
lradius 25.4976
lwrist -27.7832
lhand -37.1124 24.8234
lfingers 7.12502
lthumb -10.183 54.5569
rfemur -25.3846 3.05434 32.4584
rtibia 29.4562
rfoot -18.1683 0.200563
rtoes -26.178
lfemur -36.7172 -18.5535 -20.9169
ltibia 55.2264
lfoot -30.2742 -11.7501
ltoes -44.7315
172
root 24.5918 14.8131 2.68696 -165.58 4.5508 -167.315
lowerback 12.5993 1.02409 0.108189
upperback -9.36978 2.36845 2.38193
thorax -18.0178 1.50353 1.96195
lowerneck -14.1534 -0.689841 2.43264
upperneck 25.1995 -1.4153 4.02959
head 10.4269 0.565944 0.928732
rclavicle 3.04389e-015 1.98785e-014
rhumerus -53.2915 21.7318 -87.1218
rradius 37.7897
rwrist -11.3111
rhand -27.5451 -17.4675
rfingers 7.12502
rthumb -0.946605 -47.4451
lclavicle 3.04389e-015 1.98785e-014
lhumerus -56.6287 3.99366 75.3592
lradius 25.6023
lwrist -25.8301
lhand -36.7687 24.9249
lfingers 7.12502
lthumb -9.85149 54.6744
rfemur -27.4589 2.78985 35.044
rtibia 34.7092
rfoot -19.2452 0.351923
rtoes -26.9998
lfemur -38.1167 -18.9095 -18.7315
ltibia 58.642
lfoot -30.7282 -11.2731
ltoes -42.7101
173
root 24.7891 14.8194 2.70825 -165.868 4.72839 -167.591
lowerback 12.3555 1.38809 -1.36435
upperback -9.16231 2.43641 1.97962
thorax -17.6389 1.65172 2.31972
lowerneck -14.1361 -0.474024 3.52102
upperneck 24.9344 -1.34191 3.93597
head 10.3243 0.687634 0.717768
rclavicle -2.93829e-014 -5.08889e-014
rhumerus -54.3204 22.2112 -88.8045
rradius 37.3348
rwrist -12.7807
rhand -26.9738 -17.623
rfingers 7.12502
rthumb -0.394799 -47.6023
lclavicle -2.93829e-014 -5.08889e-014
lhumerus -55.9472 3.21272 76.5026
lradius 25.7232
lwrist -23.3719
lhand -36.8226 24.9092
lfingers 7.12502
lthumb -9.90348 54.6563
rfemur -26.6352 2.24965 35.7953
rtibia 33.7297
rfoot -18.3907 0.170313
rtoes -25.08
lfemur -37.1571 -18.1325 -18.5513
ltibia 57.4372
lfoot -31.4 -10.759
ltoes -42.5062
174
root 24.9698 14.851 2.71541 -166.363 4.58856 -167.881
lowerback 12.2881 1.65758 -2.49971
upperback -9.09305 2.4949 1.63226
thorax -17.5514 1.77198 2.54832
lowerneck -13.8203 1.20916 3.28418
upperneck 24.8982 -1.95291 5.28623
head 10.3001 -0.520191 0.965067
rclavicle -1.66979e-014 3.02153e-014
rhumerus -55.7559 22.9476 -90.8681
rradius 36.6763
rwrist -13.4191
rhand -27.038 -17.3741
rfingers 7.12502
rthumb -0.456765 -47.3534
lclavicle -1.66979e-014 3.02153e-014
lhumerus -55.9761 1.34409 78.3874
lradius 27.0857
lwrist -21.1254
lhand -37.1552 25.0595
lfingers 7.12502
lthumb -10.2243 54.791
rfemur -24.6898 1.19184 36.3855
rtibia 31.23
rfoot -17.7318 0.668461
rtoes -21.4033
lfemur -34.6648 -17.0141 -18.4199
ltibia 53.9341
lfoot -30.9955 -9.77259
ltoes -43.6114
175
root 25.1322 14.9164 2.70733 -167.178 3.8758 -167.291
lowerback 12.6801 1.73028 -2.44473
upperback -9.12413 2.59449 1.60655
thorax -17.8548 1.80949 2.45014
lowerneck -13.363 1.44281 3.83165
upperneck 25.3449 -1.91595 5.42313
head 10.3808 -0.474747 0.921609
rclavicle 1.26974e-014 -2.8625e-014
rhumerus -57.5103 23.4811 -92.7469
rradius 35.9014
rwrist -12.6807
rhand -26.9689 -16.9404
rfingers 7.12502
rthumb -0.390078 -46.9197
lclavicle 1.26974e-014 -2.8625e-014
lhumerus -55.5741 0.659614 78.9293
lradius 26.9883
lwrist -22.0987
lhand -36.1143 26.0132
lfingers 7.12502
lthumb -9.22005 55.7917
rfemur -21.6399 0.0330207 37.7409
rtibia 27.7507
rfoot -17.4044 1.4715
rtoes -18.0579
lfemur -31.694 -17.5437 -17.2464
ltibia 50.4782
lfoot -30.1694 -8.52265
ltoes -44.6461
176
root 25.2772 15.0265 2.68367 -167.772 3.18999 -167.001
lowerback 12.5148 1.8646 -1.90173
upperback -9.17924 2.81536 1.08868
thorax -17.761 1.79389 1.48775
lowerneck -13.0216 1.52385 4.45795
upperneck 25.6608 -2.15214 5.74349
head 10.4456 -0.523195 0.895089
rclavicle 4.62174e-014 1.27222e-014
rhumerus -58.7866 22.5847 -93.8735
rradius 34.9937
rwrist -10.1012
rhand -26.7271 -16.2739
rfingers 7.12502
rthumb -0.156556 -46.2536
lclavicle 4.62174e-014 1.27222e-014
lhumerus -54.749 0.17712 78.2488
lradius 26.5955
lwrist -24.319
lhand -35.5518 26.936
lfingers 7.12502
lthumb -8.67734 56.7377
rfemur -19.2781 -0.0236954 38.6075
rtibia 24.9535
rfoot -17.575 0.845032
rtoes -19.6942
lfemur -30.0583 -17.769 -16.2222
ltibia 48.6224
lfoot -29.1687 -7.87103
ltoes -45.0828
177
root 25.4097 15.1738 2.64992 -168.127 2.28355 -167.037
lowerback 12.0507 1.80849 -1.85146
upperback -9.33506 2.7381 0.762443
thorax -17.6214 1.73813 1.11417
lowerneck -12.8895 1.8871 4.68927
upperneck 25.9852 -1.98624 6.41817
head 10.5555 -0.372857 1.11612
rclavicle -5.52621e-014 -2.8625e-014
rhumerus -60.1524 21.8735 -94.3821
rradius 34.4836
rwrist -7.17462
rhand -26.3927 -15.2676
rfingers 7.12502
rthumb 0.166435 -45.2472
lclavicle -5.52621e-014 -2.8625e-014
lhumerus -54.3655 0.65272 77.0396
lradius 26.7772
lwrist -26.0635
lhand -34.6606 27.4528
lfingers 7.12502
lthumb -7.81717 57.2883
rfemur -17.3828 0.560803 39.113
rtibia 22.4203
rfoot -17.7454 -0.503803
rtoes -20.0595
lfemur -29.1385 -18.8746 -15.5017
ltibia 46.9916
lfoot -28.6295 -7.69408
ltoes -45.4872
178
root 25.5346 15.3383 2.6147 -168.157 1.32517 -167.329
lowerback 11.1658 1.66811 -2.21755
upperback -9.53532 2.51821 0.577676
thorax -17.2858 1.69316 1.18584
lowerneck -12.883 2.23274 4.78597
upperneck 26.2913 -1.6849 6.76359
head 10.6724 -0.192449 1.26431
rclavicle 2.52457e-014 -3.97569e-014
rhumerus -61.385 21.291 -94.3271
rradius 34.4895
rwrist -5.04992
rhand -25.3104 -13.8
rfingers 7.12502
rthumb 1.21173 -43.7763
lclavicle 2.52457e-014 -3.97569e-014
lhumerus -53.9921 1.69231 75.5918
lradius 27.1132
lwrist -26.537
lhand -33.6599 26.5791
lfingers 7.12502
lthumb -6.85127 56.4483
rfemur -15.9519 1.63172 39.3414
rtibia 19.9837
rfoot -17.7461 -2.02379
rtoes -17.2962
lfemur -28.4503 -20.2176 -14.9503
ltibia 45.2552
lfoot -27.8182 -6.64397
ltoes -45.3171
179
root 25.6459 15.5092 2.58388 -168.089 0.339693 -167.674
lowerback 10.1961 1.43233 -2.53794
upperback -9.71874 2.20219 0.464716
thorax -16.8677 1.60588 1.33704
lowerneck -13.1651 2.61781 4.83333
upperneck 26.7347 -1.2736 6.91521
head 10.8916 0.0302584 1.37329
rclavicle -4.27387e-015 -2.22639e-014
rhumerus -62.235 20.6594 -93.7299
rradius 34.7297
rwrist -3.91068
rhand -24.3519 -13.0204
rfingers 7.12502
rthumb 2.13754 -42.9895
lclavicle -4.27387e-015 -2.22639e-014
lhumerus -53.6678 2.87618 74.3099
lradius 27.5875
lwrist -24.8721
lhand -33.0089 25.5442
lfingers 7.12502
lthumb -6.22276 55.4328
rfemur -14.599 2.82954 39.4553
rtibia 17.4019
rfoot -17.4637 -4.11818
rtoes -17.3157
lfemur -27.6005 -20.1742 -14.4444
ltibia 42.6979
lfoot -26.3631 -6.58638
ltoes -46.0359
